<?xml version="1.0" encoding="utf-8"?>
<!-- Generator: Adobe Illustrator 23.0.0, SVG Export Plug-In . SVG Version: 6.00 Build 0)  -->
<svg version="1.1" id="Warstwa_1" xmlns="http://www.w3.org/2000/svg" xmlns:xlink="http://www.w3.org/1999/xlink" x="0px" y="0px"
	 viewBox="0 0 455.35 836.87" enable-background="new 0 0 455.35 836.87" xml:space="preserve">
<g>
	<path fill="none" stroke="#4A4848" stroke-miterlimit="10" d="M454.44,500.47c0.21-1.82,0.35-3.63,0.14-5.44
		c-0.9-7.52-0.46-15.03-0.62-22.54c0-3.74,0-7.48,0-11.22c-0.02-2.81,0.05-5.61-0.06-8.42c-0.03-1.09-3.66-40.11-3.67-40.91
		c-0.24-17.15-1.86-34.22-2.68-51.34c-0.21-4.37-0.45-8.74-1.64-12.98c0,0,0,0,0,0c0.01-0.85-2.49-43.6-3.24-64.15
		c-0.79-21.7-0.2-43.42-0.72-65.14c-0.37-15.58,0.29-31.19,0.44-46.79c0.05-4.96-1.42-15.47-1.69-15.78
		c0.01-0.2-0.22-3.91-1.73-5.02c-3.65-3.45-4.69-8.69-8.36-12.13c-0.11-0.04-0.2-0.11-0.28-0.19c0.09,0.06,0.18,0.13,0.28,0.19
		c-0.12-2.38-1.97-18.13-1.97-20.82c-0.02-33.92,0.53-67.85-0.06-101.77c-0.46-0.11-0.92-0.23-1.38-0.34
		c-3.1-5.94-27.33-13.68-27.33-13.68c-0.04-0.21-0.06-0.42-0.06-0.63c0.7-0.42-2.27-2.09-4.23-0.97c-0.87,0.01-4.3,0.23-5.14,0.32
		c0,0,0,0,0,0c0,0-42.2,4.74-45.65,5.29c-8.85,1.43-35.48,4.68-35.48,4.68s-5.91-0.57-8.72,1.05c0,0,0.01,0,0.01,0c0,0,0,0,0,0
		c-13.59,1.01-45.06,3.73-46.74,5.75c0,0,0,0,0,0c-12.25,1.29-49.2,5.35-49.2,5.35c-1.5,0.15-65.51,6.9-65.93,8.3l0,0
		c-5.53-0.49-31.7,3.55-33.89,3.62c-2.42,0.2-33.79,4.76-42.64,5.12c0,0,0,0,0,0c0,0,0,0,0,0c-1.78-0.02-44.06,5.05-46.27,4.2
		c-2.03-0.02-6.91,0.85-5.98,1.71c0,0.22,0.01,0.44,0.02,0.66c0,0,0,0,0,0C6.91,46.61-0.01,51.88,0,52.46
		c0.31,28.9,0.05,57.8,0.15,86.7c0.01,1.83,0.43,6.71,0.53,7.32c0,0,0,0,0,0h0c-0.07,11.63-0.14,23.26-0.21,34.9
		c-0.07,0-0.14,0.1-0.21,0.31c-0.07,0.21,0,0.41,0.2,0.62c0,1.4,0,2.81,0,4.21c0.05,26.73,0.1,53.46,0.15,80.19
		c0.01,5.42,0.03,10.84,0.04,16.26c-1.31,1.96,1.63,145.92,1.66,154.36c-0.06,1.69-0.16,3.38-0.17,5.07
		c-0.02,19.06-0.03,38.12-0.04,57.18c-1.81,2.4-0.93,5.14-0.98,7.76c1.43,7.07,0.43,14.23,0.73,21.34c0,0.1,0,0.19,0,0.29
		c-0.04,0.04-0.09,0.07-0.13,0.11c-1.06,3.26-1.44,6.6-1.06,10.01c0.35,2.89,0.52,13.41-0.07,15.75c0.11,2.43,1.61,18.39,1.62,24.09
		c-2.97,5.12-2.55,10.24,0.04,15.35c0.03,7.11,0.06,14.22,0.09,21.34c0.07,1.13,0.57,58.77,0.88,86.46
		c0.06,5.64-0.59,11.33,0.71,16.93c0,0,0,0,0,0.01c0.08,5.93,0.15,11.86,0.23,17.79c-0.22,3.77,4.21,18.55,4.94,19.51
		c2.21,4.19,14.61,14.54,16.97,17.06c0.84,0.05,13.35,7.02,16.94,8.05c0.9,0.19,7.61,2.17,8.82,2.18c0,0,0,0,0,0c0,0,0,0,0,0
		c0.79,0.26,11.72,4.52,16.4,6.38c0.72,0.47,17.93,7.6,21.15,7.33c0,0,0,0,0,0c0,0,41.63,8.61,42.41,8.69
		c0.7,1.77,12.14,3.19,13.88,3.2c0,0,0,0,0,0c0,0,52.16,10.18,52.16,10.18c0,0,0,0,0,0c1.88,0.07,18.35,3.41,19.53,3.39
		c0,0,16.72,3.53,17.03,3.44c0.55,0,22.53,3.53,25.25,3.6c2.01,2.23,4.66,1.54,7.15,1.56c0,0,0,0,0,0c1.03,0.05,4.15,1.47,4.64,1.44
		c5.57-0.31,10.72,2.59,16.29,2.06c3.65,0.87,16.58,2.03,18.39,2c13.51-0.2,26.94-1.94,40.41-2.92c9.13-0.67,18.25-1.57,27.03-4.43
		c-0.05,0.12-0.1,0.24-0.16,0.37c0.72,0.64,16.72-6.6,17.84-8.72c0,0,16.77-10.14,20.89-12.47c0.15-0.09,0.05-0.53-0.03-0.81
		c-0.1-0.13-0.2-0.24-0.3-0.35c0.83,0,1.66,0,2.49,0.01v0c0,0,0.01,0.01,0.01,0.01c1.82-1.37,3.76-2.64,4.26-5.11l0,0
		c0.01-0.56,0.03-1.13,0.04-1.69c0,0,0,0,0,0c2.23-1.76,2.39-4.3,2.55-6.84c0,0,0,0,0,0c1.23-5.92,1.32-11.95,1.65-17.96
		c3.48-5.19,7.67-9.97,9.37-16.18c0,0,0,0,0,0c0,0,0,0,0,0c2.3-5.01,4.5-10.05,5.88-15.38c0.69-1.18,5.72-26.57,6.93-28.14
		c1.19-0.55,1.62-1.64,2.01-2.77c-0.16-3.79,3.24-21.14,3.58-22.32c0.91-8.98,1.16-18.04,2.98-26.92
		c-0.1-5.96,0.66-11.88,0.75-17.82c-0.42-0.96-1.78-7.16-1.86-9.41c0,0,1.16-9.51,1.33-10.29c1.15-11.37,2.49-22.73,0.66-34.16
		C454.45,561.86,454.44,531.16,454.44,500.47z"/>
</g>
<g>
</g>
<g>
</g>
<g>
</g>
<g>
</g>
<g>
</g>
<g>
</g>
</svg>
