<?xml version="1.0" encoding="UTF-8" standalone="no"?>
<!DOCTYPE svg PUBLIC "-//W3C//DTD SVG 1.1//EN" "http://www.w3.org/Graphics/SVG/1.1/DTD/svg11.dtd">
<svg width="100%" height="100%" viewBox="0 0 90 91" version="1.1" xmlns="http://www.w3.org/2000/svg" xmlns:xlink="http://www.w3.org/1999/xlink" xml:space="preserve" xmlns:serif="http://www.serif.com/" style="fill-rule:evenodd;clip-rule:evenodd;stroke-linejoin:round;stroke-miterlimit:2;">
    <g transform="matrix(1,0,0,1,-275.711,-1042.96)">
        <g id="top" transform="matrix(1,0,0,1,-196.75,62.2219)">
            <path d="M439.511,941.74C442.547,938.073 447.133,935.735 452.261,935.735C460.893,935.735 467.989,942.359 468.741,950.798C468.741,950.798 473.185,966.474 478.049,971.767C485.765,980.164 497.929,983.362 507.36,988.691C507.739,988.893 508.111,989.109 508.473,989.337L508.476,989.339C508.542,989.379 508.608,989.421 508.671,989.464C513.653,992.693 516.95,998.3 516.95,1004.67C516.95,1014.67 508.836,1022.78 498.842,1022.78C468.698,1024.87 450.042,1010.86 440.153,997.354C429.945,983.411 425.795,964.181 437.437,944.928C438.005,943.785 438.703,942.716 439.51,941.741L439.511,941.74Z" style="fill:rgb(240,219,179);"/>
        </g>
        <g id="front" transform="matrix(1,0,0,1,-199.692,65.4389)">
            <path d="M439.511,941.74C442.547,938.073 447.133,935.735 452.261,935.735C460.893,935.735 467.989,942.359 468.741,950.798C468.741,950.798 473.185,966.474 478.049,971.767C485.765,980.164 497.929,983.362 507.36,988.691C507.739,988.893 508.111,989.109 508.473,989.337L508.476,989.339C508.542,989.379 508.608,989.421 508.671,989.464C513.653,992.693 516.95,998.3 516.95,1004.67C516.95,1014.67 508.836,1022.78 498.842,1022.78C468.698,1024.87 450.042,1010.86 440.153,997.354C429.945,983.411 425.795,964.181 437.437,944.928C438.005,943.785 438.703,942.716 439.51,941.741L439.511,941.74Z" style="fill:rgb(232,199,136);"/>
        </g>
    </g>
</svg>
