<?xml version="1.0" encoding="UTF-8" standalone="no"?>
<!DOCTYPE svg PUBLIC "-//W3C//DTD SVG 1.1//EN" "http://www.w3.org/Graphics/SVG/1.1/DTD/svg11.dtd">
<svg width="100%" height="100%" viewBox="0 0 142 218" version="1.1" xmlns="http://www.w3.org/2000/svg" xmlns:xlink="http://www.w3.org/1999/xlink" xml:space="preserve" xmlns:serif="http://www.serif.com/" style="fill-rule:evenodd;clip-rule:evenodd;stroke-linejoin:round;stroke-miterlimit:2;">
    <g transform="matrix(1,0,0,1,-494.666,-78.6651)">
        <g id="cap" transform="matrix(0.965926,-0.258819,0.258819,0.965926,-59.7871,149.551)">
            <g id="back" transform="matrix(1,1.94289e-16,-1.94289e-16,1,4.2043,1.98952e-13)">
                <path d="M535.932,142.212C545.952,105.741 583.612,84.119 620.199,93.922C656.93,103.764 678.76,141.575 668.918,178.306L668.861,178.567C668.515,180.089 667.932,181.902 667.143,183.961C666.134,186.75 664.959,189.439 663.632,192.022C650.266,220.141 616.736,271.584 605.187,287.66C604.249,289.103 603.218,290.47 602.102,291.757C601.904,291.996 601.737,292.185 601.603,292.322L601.603,292.322C592.47,302.438 578.12,307.203 564.06,303.436C550.001,299.669 539.955,288.367 537.105,275.04L537.104,275.04C534.961,268.698 530.676,193.543 533.514,157.649C533.655,154.252 534.051,150.83 534.715,147.408C535.038,145.545 535.404,143.941 535.815,142.641L535.932,142.212ZM616.167,108.971C644.592,116.587 661.486,145.849 653.87,174.274C646.253,202.699 616.992,219.593 588.567,211.977C560.142,204.36 543.248,175.099 550.864,146.674C558.481,118.248 587.742,101.354 616.167,108.971Z" style="fill:rgb(137,164,146);"/>
            </g>
            <g id="front" transform="matrix(1.34286,0.359818,-0.359818,1.34286,622.314,-417.206)">
                <g transform="matrix(0.694795,-0.18617,0.18617,0.694795,-354.71,405.729)">
                    <path d="M535.932,142.212C545.952,105.741 583.612,84.119 620.199,93.922C656.93,103.764 678.76,141.575 668.918,178.306L668.861,178.567C668.515,180.089 667.932,181.902 667.143,183.961C666.134,186.75 664.959,189.439 663.632,192.022C650.266,220.141 616.736,271.584 605.187,287.66C604.249,289.103 603.218,290.47 602.102,291.757C601.904,291.996 601.737,292.185 601.603,292.322L601.603,292.322C592.47,302.438 578.12,307.203 564.06,303.436C550.001,299.669 539.955,288.367 537.105,275.04L537.104,275.04C534.961,268.698 530.676,193.543 533.514,157.649C533.655,154.252 534.051,150.83 534.715,147.408C535.038,145.545 535.404,143.941 535.815,142.641L535.932,142.212ZM616.167,108.971C644.592,116.587 661.486,145.849 653.87,174.274C646.253,202.699 616.992,219.593 588.567,211.977C560.142,204.36 543.248,175.099 550.864,146.674C558.481,118.248 587.742,101.354 616.167,108.971Z" style="fill:rgb(174,192,180);"/>
                </g>
                <g transform="matrix(0.247016,1.21788e-32,-1.21788e-32,0.247016,70.5475,384.528)">
                    <circle cx="93.687" cy="405.083" r="49.56" style="fill:rgb(154,176,161);"/>
                </g>
                <g transform="matrix(0.773879,2.16065e-31,-2.16065e-31,0.773879,21.1846,91.7266)">
                    <circle cx="93.687" cy="405.083" r="49.56" style="fill:rgb(154,176,161);"/>
                </g>
            </g>
        </g>
    </g>
</svg>
